<?xml version="1.0" encoding="UTF-8" standalone="no"?>
<svg width="614px" height="72px" viewBox="0 0 614 72" version="1.1" xmlns="http://www.w3.org/2000/svg" xmlns:xlink="http://www.w3.org/1999/xlink">
    <defs></defs>
    <g id="Logo" stroke="none" stroke-width="1" fill="none" fill-rule="evenodd">
        <rect id="bg" fill="#000000" x="0" y="0" width="614" height="72"></rect>
        <g id="Text" transform="translate(23.000000, 18.000000)">
            <path d="M48.5039786,21.2495998 L44.372022,5.89188514 L40.2400655,21.2495998 L48.5039786,21.2495998 Z M51.3926916,32 L48.9427704,22.8219372 L39.8012736,22.8219372 L37.3147865,32 L35.5961851,32 L43.7138343,2.74721024 L45.0667758,2.74721024 L53.2575569,32 L51.3926916,32 Z M70.6995328,32 L67.225764,16.4594554 L63.8616932,32 L61.9602619,32 L58.0111352,10.0604077 L59.7297366,10.0604077 L62.9841095,29.3672489 L66.1653504,13.7170064 L68.1764797,13.7170064 L71.5771165,28.8918911 L74.7217914,10.0604077 L76.4769588,10.0604077 L72.4912662,32 L70.6995328,32 Z M96.8442137,27.6852135 C96.3810422,29.294125 95.6314469,30.4764134 94.5954054,31.2321143 C93.559364,31.9878151 92.0906448,32.3656599 90.189204,32.3656599 C87.9464789,32.3656599 86.2035176,31.7013844 84.9602678,30.3728136 C83.717018,29.0442427 83.0954025,27.087982 83.0954025,24.5039726 L83.0954025,17.666133 C83.0954025,15.0089913 83.7353008,13.016165 85.0151168,11.6875941 C86.2949327,10.3590233 87.9830456,9.69474781 90.079506,9.69474781 C92.1759664,9.69474781 93.8518908,10.3712118 95.1073293,11.7241601 C96.3627678,13.0771084 96.9904776,15.143066 96.9904776,17.9220949 L96.9904776,21.2130338 L84.7774379,21.2130338 L84.7774379,24.5405386 C84.7774379,26.7345088 85.2284139,28.3312076 86.1303794,29.3306829 C87.0323449,30.3301582 88.3852729,30.8298884 90.189204,30.8298884 C91.7249831,30.8298884 92.8402346,30.5617405 93.5349918,30.0254367 C94.229749,29.4891329 94.7843276,28.5384267 95.1987442,27.1732897 L96.8442137,27.6852135 Z M84.7774379,17.666133 L84.7774379,19.7138283 L95.3084422,19.7138283 L95.3084422,17.9952269 C95.3084422,15.654992 94.8696547,13.9485963 93.9920667,12.8759887 C93.1144786,11.803381 91.7981162,11.2670853 90.04294,11.2670853 C88.3121413,11.2670853 87.0018732,11.7850982 86.1120964,12.8211397 C85.2223196,13.8571812 84.7774379,15.4721628 84.7774379,17.666133 L84.7774379,17.666133 Z M113.00638,32.3656599 C111.714375,32.3656599 110.37973,32.1462661 109.002404,31.7074721 C107.625079,31.2686781 106.375753,30.5983083 105.254391,29.6963428 L106.131974,28.3068353 C107.155827,29.1356685 108.277173,29.7633783 109.496045,30.1899836 C110.714918,30.616589 111.885017,30.8298884 113.00638,30.8298884 C114.590914,30.8298884 115.858522,30.4398551 116.809243,29.6597768 C117.759963,28.8796985 118.235316,27.807107 118.235316,26.4419699 C118.235316,25.1987202 117.851377,24.2541083 117.083488,23.6081059 C116.315598,22.9621036 114.810313,22.3587708 112.567588,21.7980896 C110.227353,21.2374083 108.533146,20.4878131 107.484916,19.5492814 C106.436686,18.6107497 105.912578,17.3492357 105.912578,15.7647017 C105.912578,13.9363932 106.497628,12.467674 107.667746,11.3585002 C108.837863,10.2493264 110.361431,9.69474781 112.238494,9.69474781 C113.481744,9.69474781 114.694504,9.90804726 115.87681,10.3346526 C117.059116,10.7612579 118.137802,11.3524021 119.1129,12.108103 L118.271882,13.4610445 C117.443049,12.8028534 116.510626,12.2665576 115.474584,11.8521411 C114.438543,11.4377245 113.359857,11.2305193 112.238494,11.2305193 C110.824602,11.2305193 109.697162,11.6144583 108.85614,12.3823479 C108.015119,13.1502374 107.594614,14.2045462 107.594614,15.5453058 C107.594614,16.8616879 107.978553,17.8367711 108.746442,18.4705847 C109.514332,19.1043983 111.007428,19.6894483 113.225776,20.2257521 C115.590388,20.7864334 117.302878,21.5482172 118.363297,22.5111263 C119.423716,23.4740355 119.953918,24.7355494 119.953918,26.295706 C119.953918,28.0996371 119.307925,29.5622619 118.01592,30.6836245 C116.723916,31.804987 115.054086,32.3656599 113.00638,32.3656599 L113.00638,32.3656599 Z M135.677292,32.3656599 C133.434567,32.3656599 131.715983,31.6891959 130.521488,30.3362476 C129.326993,28.9832993 128.729755,27.0514156 128.729755,24.5405386 L128.729755,17.666133 C128.729755,15.1065011 129.333087,13.1380518 130.539771,11.7607261 C131.746454,10.3834003 133.471133,9.69474781 135.713858,9.69474781 C137.932206,9.69474781 139.638601,10.3834003 140.833096,11.7607261 C142.027591,13.1380518 142.62483,15.1065011 142.62483,17.666133 L142.62483,24.5405386 C142.62483,27.0514156 142.027591,28.9832993 140.833096,30.3362476 C139.638601,31.6891959 137.920017,32.3656599 135.677292,32.3656599 L135.677292,32.3656599 Z M135.677292,30.8298884 C137.456846,30.8298884 138.779302,30.3118754 139.644702,29.275834 C140.510101,28.2397925 140.942794,26.6613765 140.942794,24.5405386 L140.942794,17.666133 C140.942794,15.4721628 140.510101,13.8510869 139.644702,12.8028567 C138.779302,11.7546265 137.456846,11.2305193 135.677292,11.2305193 C133.897738,11.2305193 132.575282,11.7546265 131.709882,12.8028567 C130.844483,13.8510869 130.41179,15.4721628 130.41179,17.666133 L130.41179,24.5405386 C130.41179,26.6613765 130.844483,28.2397925 131.709882,29.275834 C132.575282,30.3118754 133.897738,30.8298884 135.677292,30.8298884 L135.677292,30.8298884 Z M151.766326,13.9729683 L151.766326,32 L150.047725,32 L150.047725,10.0604077 L151.766326,10.0604077 L151.766326,12.6200268 L152.09542,12.6200268 C152.436705,11.7180613 152.899869,11.0050316 153.484928,10.4809165 C154.069987,9.95680143 154.776922,9.69474781 155.605755,9.69474781 C156.458966,9.69474781 157.184184,9.95070716 157.781431,10.4626335 C158.378679,10.9745599 158.799183,11.6936838 159.042958,12.6200268 L159.408618,12.6200268 C159.749902,11.7180613 160.249632,11.0050316 160.907823,10.4809165 C161.566014,9.95680143 162.346081,9.69474781 163.248046,9.69474781 C164.393786,9.69474781 165.301833,10.194478 165.972212,11.1939533 C166.642592,12.1934286 166.977777,13.5829222 166.977777,15.3624758 L166.977777,32 L165.259176,32 L165.259176,15.7281357 C165.259176,14.1923566 165.064159,13.0710108 164.67412,12.3640649 C164.284081,11.6571189 163.674654,11.3036512 162.845821,11.3036512 C162.236384,11.3036512 161.64524,11.523045 161.07237,11.961839 C160.4995,12.4006331 159.920545,13.0710028 159.335486,13.9729683 L159.335486,32 L157.65345,32 L157.65345,15.7281357 C157.65345,14.1923566 157.458434,13.0710108 157.068395,12.3640649 C156.678355,11.6571189 156.068928,11.3036512 155.240095,11.3036512 C154.630659,11.3036512 154.039515,11.523045 153.466645,11.961839 C152.893775,12.4006331 152.327008,13.0710028 151.766326,13.9729683 L151.766326,13.9729683 Z M188.112918,27.6852135 C187.649746,29.294125 186.900151,30.4764134 185.86411,31.2321143 C184.828068,31.9878151 183.359349,32.3656599 181.457908,32.3656599 C179.215183,32.3656599 177.472222,31.7013844 176.228972,30.3728136 C174.985722,29.0442427 174.364107,27.087982 174.364107,24.5039726 L174.364107,17.666133 C174.364107,15.0089913 175.004005,13.016165 176.283821,11.6875941 C177.563637,10.3590233 179.25175,9.69474781 181.34821,9.69474781 C183.444671,9.69474781 185.120595,10.3712118 186.376033,11.7241601 C187.631472,13.0771084 188.259182,15.143066 188.259182,17.9220949 L188.259182,21.2130338 L176.046142,21.2130338 L176.046142,24.5405386 C176.046142,26.7345088 176.497118,28.3312076 177.399083,29.3306829 C178.301049,30.3301582 179.653977,30.8298884 181.457908,30.8298884 C182.993687,30.8298884 184.108939,30.5617405 184.803696,30.0254367 C185.498453,29.4891329 186.053032,28.5384267 186.467448,27.1732897 L188.112918,27.6852135 Z M176.046142,17.666133 L176.046142,19.7138283 L186.577146,19.7138283 L186.577146,17.9952269 C186.577146,15.654992 186.138359,13.9485963 185.260771,12.8759887 C184.383183,11.803381 183.06682,11.2670853 181.311644,11.2670853 C179.580845,11.2670853 178.270577,11.7850982 177.3808,12.8211397 C176.491024,13.8571812 176.046142,15.4721628 176.046142,17.666133 L176.046142,17.666133 Z" id="Awesome" fill="#FFFFFF"></path>
            <path d="M219.408588,32.3656599 C216.873334,32.3656599 214.971921,31.512462 213.704294,29.8060408 C212.436667,28.0996195 211.802863,25.540026 211.802863,22.1271835 L211.802863,12.7662907 C211.802863,9.32907075 212.442761,6.73900589 213.722577,4.99601845 C215.002393,3.25303101 216.9099,2.38155036 219.445154,2.38155036 C221.980408,2.38155036 223.869632,3.25303101 225.112882,4.99601845 C226.356132,6.73900589 226.977747,9.32907075 226.977747,12.7662907 L226.977747,22.1271835 C226.977747,25.540026 226.350038,28.0996195 225.094599,29.8060408 C223.839161,31.512462 221.943842,32.3656599 219.408588,32.3656599 L219.408588,32.3656599 Z M219.408588,30.8298884 C221.505048,30.8298884 223.004239,30.1229531 223.906204,28.7090612 C224.80817,27.2951692 225.259146,25.101232 225.259146,22.1271835 L225.259146,12.7662907 C225.259146,9.71910989 224.80817,7.48251271 223.906204,6.05643208 C223.004239,4.63035145 221.505048,3.91732183 219.408588,3.91732183 C217.312128,3.91732183 215.812937,4.63035145 214.910972,6.05643208 C214.009006,7.48251271 213.55803,9.71910989 213.55803,12.7662907 L213.55803,22.1271835 C213.55803,25.101232 214.009006,27.2951692 214.910972,28.7090612 C215.812937,30.1229531 217.312128,30.8298884 219.408588,30.8298884 L219.408588,30.8298884 Z M242.372028,32.1828299 C240.714362,32.1828299 239.221265,31.8781164 237.892695,31.2686803 C236.564124,30.6592441 235.400118,29.8304233 234.400643,28.7821931 L235.387924,27.5023836 C236.436155,28.5506138 237.527029,29.3367746 238.66058,29.8608897 C239.794132,30.3850049 241.043457,30.6470585 242.408594,30.6470585 C244.16377,30.6470585 245.595924,30.1107627 246.705097,29.038155 C247.814271,27.9655474 248.36885,26.4785454 248.36885,24.5771046 C248.36885,22.8219284 247.942251,21.4629062 247.08904,20.499997 C246.23583,19.5370879 244.639131,18.6046645 242.298896,17.702699 C239.836774,16.7519786 238.014587,15.6976698 236.832281,14.5397411 C235.649975,13.3818124 235.058831,11.7790193 235.058831,9.73131379 C235.058831,7.56172104 235.710917,5.83704255 237.015111,4.5572266 C238.319304,3.27741065 240.031794,2.63751227 242.152632,2.63751227 C243.590901,2.63751227 244.90117,2.91784871 246.083476,3.47852998 C247.265782,4.03921125 248.307902,4.75833514 249.209868,5.63592323 L248.259152,6.95229877 C247.308431,6.07471068 246.345537,5.39215242 245.370439,4.90460348 C244.395341,4.41705455 243.322749,4.17328374 242.152632,4.17328374 C240.421833,4.17328374 239.081094,4.66691963 238.130373,5.65420622 C237.179653,6.64149281 236.7043,7.93957238 236.7043,9.54848386 C236.7043,11.2305277 237.179653,12.522513 238.130373,13.4244785 C239.081094,14.326444 240.70217,15.228396 242.99365,16.1303616 C245.455772,17.081082 247.241393,18.1719564 248.350567,19.4030174 C249.459741,20.6340785 250.014319,22.3587569 250.014319,24.5771046 C250.014319,26.8442071 249.295195,28.6785825 247.856926,30.0802857 C246.418657,31.4819889 244.590376,32.1828299 242.372028,32.1828299 L242.372028,32.1828299 Z" id="OS" fill="#FFFFFF"></path>
            <path d="M314.701116,32.3656599 C312.141484,32.3656599 310.185223,31.5307448 308.832275,29.8608897 C307.479327,28.1910347 306.802863,25.6619125 306.802863,22.2734474 L306.802863,12.6200268 C306.802863,9.25593914 307.479327,6.70853417 308.832275,4.97773546 C310.185223,3.24693674 312.153673,2.38155036 314.737682,2.38155036 C317.151049,2.38155036 319.015896,3.10676853 320.332278,4.5572266 C321.64866,6.00768468 322.367784,8.26865895 322.489671,11.3402172 L320.77107,11.4864812 C320.57605,8.68307481 320.027566,6.72071979 319.1256,5.59935724 C318.223635,4.47799469 316.748821,3.91732183 314.701116,3.91732183 C312.507146,3.91732183 310.934824,4.61816291 309.984104,6.01986609 C309.033383,7.42156928 308.55803,9.670355 308.55803,12.7662907 L308.55803,22.1271835 C308.55803,25.1743643 309.033383,27.3865844 309.984104,28.7639101 C310.934824,30.1412359 312.507146,30.8298884 314.701116,30.8298884 C316.846331,30.8298884 318.382087,30.2448385 319.30843,29.074721 C320.234773,27.9046036 320.722315,26.0153798 320.77107,23.406993 L322.489671,23.553257 C322.465294,26.4054182 321.794924,28.587167 320.478542,30.0985687 C319.16216,31.6099704 317.23637,32.3656599 314.701116,32.3656599 L314.701116,32.3656599 Z M337.225764,32.3656599 C334.983039,32.3656599 333.264455,31.6891959 332.06996,30.3362476 C330.875465,28.9832993 330.278226,27.0514156 330.278226,24.5405386 L330.278226,17.666133 C330.278226,15.1065011 330.881559,13.1380518 332.088243,11.7607261 C333.294926,10.3834003 335.019605,9.69474781 337.26233,9.69474781 C339.480678,9.69474781 341.187073,10.3834003 342.381568,11.7607261 C343.576063,13.1380518 344.173302,15.1065011 344.173302,17.666133 L344.173302,24.5405386 C344.173302,27.0514156 343.576063,28.9832993 342.381568,30.3362476 C341.187073,31.6891959 339.468489,32.3656599 337.225764,32.3656599 L337.225764,32.3656599 Z M337.225764,30.8298884 C339.005318,30.8298884 340.327774,30.3118754 341.193174,29.275834 C342.058573,28.2397925 342.491266,26.6613765 342.491266,24.5405386 L342.491266,17.666133 C342.491266,15.4721628 342.058573,13.8510869 341.193174,12.8028567 C340.327774,11.7546265 339.005318,11.2305193 337.225764,11.2305193 C335.44621,11.2305193 334.123754,11.7546265 333.258354,12.8028567 C332.392955,13.8510869 331.960262,15.4721628 331.960262,17.666133 L331.960262,24.5405386 C331.960262,26.6613765 332.392955,28.2397925 333.258354,29.275834 C334.123754,30.3118754 335.44621,30.8298884 337.225764,30.8298884 L337.225764,30.8298884 Z M353.314798,13.9729683 L353.314798,32 L351.596197,32 L351.596197,10.0604077 L353.314798,10.0604077 L353.314798,12.6200268 L353.643892,12.6200268 C353.985177,11.7180613 354.448341,11.0050316 355.0334,10.4809165 C355.618459,9.95680143 356.325394,9.69474781 357.154227,9.69474781 C358.007438,9.69474781 358.732656,9.95070716 359.329903,10.4626335 C359.927151,10.9745599 360.347655,11.6936838 360.59143,12.6200268 L360.95709,12.6200268 C361.298374,11.7180613 361.798104,11.0050316 362.456295,10.4809165 C363.114486,9.95680143 363.894553,9.69474781 364.796518,9.69474781 C365.942258,9.69474781 366.850305,10.194478 367.520684,11.1939533 C368.191064,12.1934286 368.526249,13.5829222 368.526249,15.3624758 L368.526249,32 L366.807648,32 L366.807648,15.7281357 C366.807648,14.1923566 366.612631,13.0710108 366.222592,12.3640649 C365.832553,11.6571189 365.223126,11.3036512 364.394293,11.3036512 C363.784856,11.3036512 363.193712,11.523045 362.620842,11.961839 C362.047972,12.4006331 361.469016,13.0710028 360.883958,13.9729683 L360.883958,32 L359.201922,32 L359.201922,15.7281357 C359.201922,14.1923566 359.006906,13.0710108 358.616867,12.3640649 C358.226827,11.6571189 357.6174,11.3036512 356.788567,11.3036512 C356.179131,11.3036512 355.587987,11.523045 355.015117,11.961839 C354.442247,12.4006331 353.87548,13.0710028 353.314798,13.9729683 L353.314798,13.9729683 Z M376.131974,13.9729683 L376.131974,32 L374.413373,32 L374.413373,10.0604077 L376.131974,10.0604077 L376.131974,12.6200268 L376.461068,12.6200268 C376.802353,11.7180613 377.265517,11.0050316 377.850576,10.4809165 C378.435635,9.95680143 379.14257,9.69474781 379.971403,9.69474781 C380.824614,9.69474781 381.549832,9.95070716 382.147079,10.4626335 C382.744327,10.9745599 383.164831,11.6936838 383.408606,12.6200268 L383.774266,12.6200268 C384.11555,11.7180613 384.61528,11.0050316 385.273471,10.4809165 C385.931662,9.95680143 386.711729,9.69474781 387.613694,9.69474781 C388.759434,9.69474781 389.667481,10.194478 390.33786,11.1939533 C391.00824,12.1934286 391.343425,13.5829222 391.343425,15.3624758 L391.343425,32 L389.624824,32 L389.624824,15.7281357 C389.624824,14.1923566 389.429807,13.0710108 389.039768,12.3640649 C388.649729,11.6571189 388.040302,11.3036512 387.211469,11.3036512 C386.602032,11.3036512 386.010888,11.523045 385.438018,11.961839 C384.865148,12.4006331 384.286192,13.0710028 383.701134,13.9729683 L383.701134,32 L382.019098,32 L382.019098,15.7281357 C382.019098,14.1923566 381.824082,13.0710108 381.434043,12.3640649 C381.044003,11.6571189 380.434576,11.3036512 379.605743,11.3036512 C378.996307,11.3036512 378.405163,11.523045 377.832293,11.961839 C377.259423,12.4006331 376.692656,13.0710028 376.131974,13.9729683 L376.131974,13.9729683 Z M403.812427,30.9030204 C404.958167,30.9030204 406.000287,30.6165897 406.938819,30.0437197 C407.87735,29.4708497 408.748831,28.6115576 409.553287,27.4658176 L409.553287,21.9077875 L403.190805,21.9077875 C401.947555,21.9077875 400.960283,22.1942182 400.22896,22.7670882 C399.497637,23.3399582 399.13198,24.3820784 399.13198,25.8934801 C399.13198,27.5023916 399.509825,28.7395285 400.265526,29.6049278 C401.021227,30.4703272 402.203515,30.9030204 403.812427,30.9030204 L403.812427,30.9030204 Z M403.629597,32.3656599 C401.776911,32.3656599 400.302097,31.804987 399.205112,30.6836245 C398.108127,29.5622619 397.559643,28.0386943 397.559643,26.1128761 C397.559643,24.3576999 398.047185,22.9743006 399.022282,21.9626365 C399.99738,20.9509725 401.362497,20.445148 403.117673,20.445148 L409.553287,20.445148 L409.553287,15.8743996 C409.553287,14.4848852 409.138876,13.3635395 408.310043,12.5103288 C407.48121,11.6571182 406.298922,11.2305193 404.763142,11.2305193 C403.227363,11.2305193 402.093829,11.5352328 401.362506,12.1446689 C400.631182,12.7541051 400.058321,13.8632623 399.643904,15.4721738 L398.144699,15.0333819 C398.60787,13.1319411 399.351371,11.7668246 400.375224,10.9379914 C401.399077,10.1091582 402.861702,9.69474781 404.763142,9.69474781 C406.737716,9.69474781 408.310037,10.2432321 409.480155,11.3402172 C410.650272,12.4372023 411.235322,13.9485814 411.235322,15.8743996 L411.235322,26.405404 C411.235322,28.2337125 411.497376,29.4342837 412.021491,30.0071537 C412.545606,30.5800237 413.502406,30.7201919 414.891921,30.4276626 L414.891921,32.036566 C413.526784,32.2803405 412.429815,32.134078 411.600982,31.5977741 C410.772149,31.0614703 410.296796,30.0985756 410.174908,28.7090612 L409.882381,28.7090612 C409.297322,29.8060463 408.444124,30.6897154 407.322761,31.3600952 C406.201399,32.030475 404.970356,32.3656599 403.629597,32.3656599 L403.629597,32.3656599 Z M421.546931,32 L421.546931,10.0604077 L423.228966,10.0604077 L423.228966,13.2416486 L423.55806,13.2416486 C424.118741,12.120286 424.95975,11.2488054 426.081113,10.6271805 C427.202475,10.0055556 428.360387,9.69474781 429.554882,9.69474781 C431.334435,9.69474781 432.760495,10.2919863 433.833102,11.4864812 C434.90571,12.6809761 435.442006,14.2898634 435.442006,16.3131915 L435.442006,32 L433.75997,32 L433.75997,16.6422854 C433.75997,14.8871092 433.376031,13.552464 432.608142,12.6383098 C431.840252,11.7241555 430.761566,11.2670853 429.372052,11.2670853 C428.226312,11.2670853 427.129343,11.553516 426.081113,12.126386 C425.032883,12.699256 424.082177,13.5829251 423.228966,14.77742 L423.228966,32 L421.546931,32 Z M450.653456,30.8298884 C451.774819,30.8298884 452.798656,30.5556462 453.724999,30.0071537 C454.651342,29.4586611 455.602048,28.5506149 456.577146,27.2829877 L456.577146,12.5834608 C455.821445,12.1202893 455.023096,11.7668216 454.182074,11.5230472 C453.341052,11.2792727 452.469572,11.1573873 451.567606,11.1573873 C449.739298,11.1573873 448.361992,11.7119659 447.435649,12.8211397 C446.509306,13.9303135 446.046142,15.5452952 446.046142,17.666133 L446.046142,24.5039726 C446.046142,26.6979428 446.423987,28.3007359 447.179688,29.3123999 C447.935388,30.324064 449.0933,30.8298884 450.653456,30.8298884 L450.653456,30.8298884 Z M456.248052,28.9650231 C455.638616,30.0376307 454.828078,30.8725457 453.816414,31.4697932 C452.80475,32.0670406 451.67731,32.3656599 450.43406,32.3656599 C448.459487,32.3656599 446.954202,31.6891959 445.918161,30.3362476 C444.88212,28.9832993 444.364107,27.0392271 444.364107,24.5039726 L444.364107,17.593001 C444.364107,15.1796338 445.004005,13.2599387 446.283821,11.8338581 C447.563637,10.4077774 449.324881,9.69474781 451.567606,9.69474781 C452.493949,9.69474781 453.377618,9.81053894 454.21864,10.0421247 C455.059662,10.2737104 455.845823,10.5479526 456.577146,10.8648594 L456.577146,2.74721024 L458.259182,2.74721024 L458.259182,32 L456.577146,32 L456.577146,28.9650231 L456.248052,28.9650231 Z" id="Command" fill="#FFFFFF"></path>
            <path d="M282.868049,32 L275.48172,18.5071507 L267.875995,32 L266.011129,32 L274.56757,16.8982473 L266.779015,2.74721024 L268.64388,2.74721024 L275.701116,15.5818717 L282.941181,2.74721024 L284.806047,2.74721024 L276.5787,17.1542092 L284.732915,32 L282.868049,32 Z" id="X" fill="#FFFFFF"></path>
            <path d="M482.960256,32 L482.960256,2.74721024 L484.678857,2.74721024 L484.678857,30.4642285 L495.356126,30.4642285 L495.356126,32 L482.960256,32 Z M504.278226,32 L504.278226,30.4642285 L510.384746,30.4642285 L510.384746,11.5961791 L504.278226,11.5961791 L504.278226,10.0604077 L512.066782,10.0604077 L512.066782,30.4642285 L518.173302,30.4642285 L518.173302,32 L504.278226,32 Z M511.26233,5.27026335 C510.774781,5.27026335 510.378654,5.17275503 510.073935,4.97773546 C509.769217,4.78271588 509.616861,4.44143675 509.616861,3.95388781 L509.616861,3.6979259 C509.616861,3.18599952 509.769217,2.82643758 510.073935,2.61922928 C510.378654,2.41202098 510.774781,2.30841839 511.26233,2.30841839 C511.749879,2.30841839 512.146007,2.41202098 512.450725,2.61922928 C512.755443,2.82643758 512.907799,3.18599952 512.907799,3.6979259 L512.907799,3.95388781 C512.907799,4.44143675 512.749348,4.78271588 512.432442,4.97773546 C512.115535,5.17275503 511.725501,5.27026335 511.26233,5.27026335 L511.26233,5.27026335 Z M527.095402,32 L527.095402,10.0604077 L528.777438,10.0604077 L528.777438,13.2416486 L529.106532,13.2416486 C529.667213,12.120286 530.508222,11.2488054 531.629585,10.6271805 C532.750947,10.0055556 533.908859,9.69474781 535.103354,9.69474781 C536.882907,9.69474781 538.308967,10.2919863 539.381574,11.4864812 C540.454182,12.6809761 540.990478,14.2898634 540.990478,16.3131915 L540.990478,32 L539.308442,32 L539.308442,16.6422854 C539.308442,14.8871092 538.924503,13.552464 538.156614,12.6383098 C537.388724,11.7241555 536.310038,11.2670853 534.920524,11.2670853 C533.774784,11.2670853 532.677815,11.553516 531.629585,12.126386 C530.581355,12.699256 529.630649,13.5829251 528.777438,14.77742 L528.777438,32 L527.095402,32 Z M563.66139,27.6852135 C563.198218,29.294125 562.448623,30.4764134 561.412581,31.2321143 C560.37654,31.9878151 558.907821,32.3656599 557.00638,32.3656599 C554.763655,32.3656599 553.020694,31.7013844 551.777444,30.3728136 C550.534194,29.0442427 549.912578,27.087982 549.912578,24.5039726 L549.912578,17.666133 C549.912578,15.0089913 550.552477,13.016165 551.832293,11.6875941 C553.112109,10.3590233 554.800222,9.69474781 556.896682,9.69474781 C558.993142,9.69474781 560.669067,10.3712118 561.924505,11.7241601 C563.179944,13.0771084 563.807654,15.143066 563.807654,17.9220949 L563.807654,21.2130338 L551.594614,21.2130338 L551.594614,24.5405386 C551.594614,26.7345088 552.04559,28.3312076 552.947555,29.3306829 C553.849521,30.3301582 555.202449,30.8298884 557.00638,30.8298884 C558.542159,30.8298884 559.657411,30.5617405 560.352168,30.0254367 C561.046925,29.4891329 561.601504,28.5384267 562.01592,27.1732897 L563.66139,27.6852135 Z M551.594614,17.666133 L551.594614,19.7138283 L562.125618,19.7138283 L562.125618,17.9952269 C562.125618,15.654992 561.686831,13.9485963 560.809243,12.8759887 C559.931655,11.803381 558.615292,11.2670853 556.860116,11.2670853 C555.129317,11.2670853 553.819049,11.7850982 552.929272,12.8211397 C552.039496,13.8571812 551.594614,15.4721628 551.594614,17.666133 L551.594614,17.666133 Z" id="Line" fill="#FFFFFF"></path>
            <path d="M1.9968219,10.4260675 C1.9968219,11.6449399 2.36857239,12.7175314 3.11208451,13.6438744 C3.85559664,14.5702174 5.06835642,15.3990382 6.75040024,16.1303616 L6.75040024,5.89188514 C5.2146211,5.91626258 4.03842694,6.32457869 3.22178247,7.11684571 C2.40513801,7.90911272 1.9968219,9.01217564 1.9968219,10.4260675 L1.9968219,10.4260675 Z M12.9300521,24.1383128 C12.9300521,22.895063 12.5400188,21.8102829 11.7599405,20.8839399 C10.9798622,19.9575969 9.7488196,19.1165876 8.06677578,18.3608868 L8.06677578,28.8187591 C9.65130981,28.7700042 10.8579753,28.3434053 11.6868085,27.5389496 C12.5156417,26.7344938 12.9300521,25.6009596 12.9300521,24.1383128 L12.9300521,24.1383128 Z M8.10334176,33.8282994 L6.71383425,33.8282994 L6.71383425,30.3179646 C5.56809426,30.2204548 4.4528428,29.9401184 3.36804642,29.4769469 C2.28325004,29.0137754 1.28988399,28.3312171 0.387918465,27.4292516 L1.1558042,26.0397441 C1.98463738,26.8198224 2.87440084,27.4475322 3.82512126,27.9228924 C4.77584168,28.3982526 5.75092492,28.6846833 6.75040024,28.7821931 L6.75040024,17.848963 C4.4832977,16.92262 2.86831608,15.8926883 1.90540693,14.759137 C0.942497789,13.6255858 0.461050439,12.2178093 0.461050439,10.5357655 C0.461050439,8.65870212 1.00953476,7.17170017 2.10651986,6.07471507 C3.20350496,4.97772997 4.73926107,4.41705711 6.71383425,4.39267966 L6.71383425,0.918910876 L8.10334176,0.918910876 L8.10334176,4.46581164 C9.15157197,4.58769887 10.1510323,4.87412957 11.1017527,5.32511233 C12.0524731,5.7760951 12.905671,6.30629661 13.6613718,6.91573278 L12.8569201,8.30524029 C12.1743516,7.79331391 11.4308506,7.31186656 10.6263949,6.8608838 C9.82193914,6.40990103 8.9687413,6.11128179 8.06677578,5.96501711 L8.06677578,16.6422854 C10.3582558,17.5930058 12.0037087,18.6473145 13.003184,19.8052433 C14.0026594,20.963172 14.5023895,22.3709484 14.5023895,24.0286148 C14.5023895,25.9056782 13.9356224,27.4048687 12.8020711,28.5262312 C11.6685198,29.6475938 10.1022924,30.2570208 8.10334176,30.3545306 L8.10334176,33.8282994 Z" id="$" fill="#D0011B"></path>
        </g>
    </g>
</svg>