<?xml version="1.0" standalone="no"?>
<!DOCTYPE svg PUBLIC "-//W3C//DTD SVG 20010904//EN"
 "http://www.w3.org/TR/2001/REC-SVG-20010904/DTD/svg10.dtd">
<svg version="1.0" xmlns="http://www.w3.org/2000/svg"
 width="512.000000pt" height="64.000000pt" viewBox="0 0 512.000000 64.000000"
 preserveAspectRatio="xMidYMid meet">
<metadata>
Created by potrace 1.12, written by Peter Selinger 2001-2015
</metadata>
<g transform="translate(0.000000,64.000000) scale(0.100000,-0.100000)"
fill="#000000" stroke="none">
<path d="M0 320 l0 -320 2560 0 2560 0 0 320 0 320 -2560 0 -2560 0 0 -320z
m4220 0 l0 -310 -2105 0 -2105 0 0 310 0 310 2105 0 2105 0 0 -310z"/>
<path d="M20 320 l0 -300 2093 2 2092 3 3 298 2 297 -2095 0 -2095 0 0 -300z
m1173 154 c-1 -10 -4 -31 -7 -46 -5 -25 -3 -27 22 -22 43 9 56 -14 48 -83 -10
-81 -16 -103 -32 -103 -17 0 -18 22 -3 90 8 39 8 55 -1 63 -17 18 -47 -23 -55
-76 -3 -23 -9 -50 -11 -59 -6 -21 -34 -24 -34 -5 0 16 39 238 45 255 7 20 30
8 28 -14z m526 -9 c22 -22 26 -109 7 -160 -19 -49 -66 -95 -99 -95 -11 0 -31
10 -44 22 -32 30 -32 122 -2 186 32 65 96 87 138 47z m179 2 c19 -15 5 -22
-41 -22 -39 0 -42 -2 -45 -29 -3 -22 4 -35 32 -61 27 -24 36 -41 36 -64 0 -37
-38 -81 -69 -81 -28 0 -71 21 -71 35 0 21 11 23 37 10 18 -10 32 -11 45 -4 29
16 22 56 -17 93 -25 24 -35 42 -35 62 1 66 77 102 128 61z m1320 0 c19 -15 5
-22 -41 -22 -39 0 -42 -2 -45 -29 -3 -22 4 -35 32 -61 27 -24 36 -41 36 -64 0
-37 -38 -81 -69 -81 -28 0 -71 21 -71 35 0 21 11 23 37 10 18 -10 32 -11 45
-4 29 16 22 56 -17 93 -25 24 -35 42 -35 62 1 66 77 102 128 61z m-2503 -44
c4 -32 9 -75 13 -96 l7 -38 41 93 c36 82 44 93 69 96 24 3 27 1 22 -19 -3 -12
-14 -69 -23 -127 -11 -66 -22 -106 -31 -109 -23 -9 -25 2 -9 83 8 43 13 80 12
81 -1 1 -19 -36 -40 -82 -27 -60 -44 -85 -56 -85 -15 0 -19 14 -27 88 l-9 87
-12 -70 c-17 -95 -21 -105 -39 -105 -12 0 -14 7 -10 28 3 15 13 73 23 130 16
94 19 102 40 102 20 0 23 -6 29 -57z m242 23 c-4 -9 -11 -16 -17 -16 -17 0
-24 31 -9 41 18 11 34 -5 26 -25z m50 0 c-4 -9 -11 -16 -17 -16 -17 0 -24 31
-9 41 18 11 34 -5 26 -25z m353 9 c0 -19 -20 -29 -32 -17 -8 8 -7 16 2 26 14
17 30 12 30 -9z m671 -21 l12 -46 30 46 c18 28 37 46 48 46 17 0 14 -9 -22
-65 l-41 -65 18 -52 c9 -29 19 -59 22 -65 2 -8 -4 -13 -17 -13 -15 0 -23 10
-31 43 -6 23 -12 46 -13 51 -2 4 -17 -15 -34 -43 -18 -28 -39 -51 -48 -51 -22
0 -20 7 25 75 l39 60 -14 49 c-19 62 -19 76 0 76 9 0 19 -17 26 -46z m234 21
c-3 -14 -8 -37 -11 -52 -5 -25 -2 -24 35 17 22 25 40 48 41 53 0 4 9 7 20 7
29 0 25 -8 -29 -70 l-49 -55 34 -67 c32 -63 33 -68 14 -68 -14 0 -28 16 -49
58 l-29 57 -8 -53 c-6 -48 -24 -75 -40 -59 -3 2 5 61 17 131 19 108 25 126 41
126 14 0 17 -6 13 -25z m-1158 -25 c-3 -12 1 -23 10 -29 9 -4 13 -14 9 -20 -4
-6 -11 -9 -16 -6 -10 6 -16 -13 -25 -76 -6 -38 -4 -47 10 -53 22 -8 9 -26 -20
-26 -31 0 -34 14 -22 89 8 49 7 66 -1 69 -17 5 -15 22 3 22 8 0 15 8 15 18 0
22 8 32 28 32 9 0 13 -7 9 -20z m1880 0 c-3 -12 1 -23 10 -29 9 -4 13 -14 9
-20 -4 -6 -11 -9 -16 -6 -10 6 -16 -13 -25 -76 -6 -38 -4 -47 10 -53 22 -8 9
-26 -20 -26 -31 0 -34 14 -22 89 8 49 7 66 -1 69 -17 5 -15 22 3 22 8 0 15 8
15 18 0 22 8 32 28 32 9 0 13 -7 9 -20z m440 0 c-3 -12 1 -23 10 -29 9 -4 13
-14 9 -20 -4 -6 -11 -9 -16 -6 -10 6 -16 -13 -25 -76 -6 -38 -4 -47 10 -53 22
-8 9 -26 -20 -26 -31 0 -34 14 -22 89 8 49 7 66 -1 69 -17 5 -15 22 3 22 8 0
15 8 15 18 0 22 8 32 28 32 9 0 13 -7 9 -20z m-1949 -42 c3 -15 -2 -17 -27
-12 -46 10 -53 -20 -12 -56 39 -36 39 -54 0 -91 -17 -16 -26 -29 -19 -29 6 0
10 -11 8 -27 -3 -25 -8 -28 -42 -31 -28 -3 -37 0 -34 10 3 7 14 12 26 10 11
-2 23 2 27 8 3 6 -3 10 -15 10 -16 0 -20 4 -16 16 4 10 -1 22 -11 30 -14 10
-15 15 -6 25 10 10 15 9 27 -1 9 -7 23 -10 31 -6 23 9 18 42 -10 60 -50 33
-21 110 39 104 20 -2 32 -9 34 -20z m998 -3 c34 -51 -1 -149 -61 -170 -23 -8
-30 -6 -46 14 -22 28 -24 79 -5 125 25 59 83 75 112 31z m152 13 c9 -9 15 -9
24 0 17 17 53 15 68 -3 10 -12 10 -31 0 -95 -11 -69 -15 -80 -32 -80 -14 0
-18 5 -14 15 12 33 19 145 8 145 -23 0 -40 -32 -52 -94 -8 -44 -17 -66 -26
-66 -17 0 -17 19 -4 91 12 63 1 82 -30 54 -11 -10 -20 -24 -20 -31 0 -40 -23
-114 -36 -114 -17 0 -17 12 -1 105 12 66 14 70 42 76 47 10 60 10 73 -3z m702
-3 c9 -11 11 -33 6 -72 -11 -94 -14 -100 -52 -106 -44 -7 -61 -1 -70 25 -11
36 15 77 57 88 23 7 39 17 39 26 0 20 -27 29 -44 15 -11 -9 -16 -9 -22 0 -9
15 22 39 52 39 12 0 27 -7 34 -15z m300 4 c0 -7 -11 -22 -24 -34 -15 -13 -26
-39 -31 -66 -10 -66 -15 -79 -31 -79 -17 0 -17 12 -1 105 12 66 14 70 42 76
45 10 45 10 45 -2z m-2703 -21 c-12 -50 -19 -117 -13 -127 10 -16 33 -2 45 27
5 15 13 48 17 75 5 38 10 47 26 47 14 0 18 -5 14 -17 -2 -10 -10 -51 -16 -91
-10 -62 -15 -73 -30 -69 -9 2 -25 0 -34 -5 -23 -13 -53 -1 -59 22 -3 11 0 51
6 90 9 59 14 70 30 70 15 0 18 -5 14 -22z m423 14 c0 -10 -18 -116 -25 -149
-6 -24 -35 -32 -35 -10 0 16 19 125 26 150 5 17 34 25 34 9z m1457 -14 c-12
-50 -19 -117 -13 -127 10 -16 33 -2 45 27 5 15 13 48 17 75 5 38 10 47 26 47
14 0 18 -5 14 -17 -2 -10 -10 -51 -16 -91 -10 -62 -15 -73 -30 -69 -9 2 -25 0
-34 -5 -23 -13 -53 -1 -59 22 -3 11 0 51 6 90 9 59 14 70 30 70 15 0 18 -5 14
-22z m703 14 c0 -10 -18 -116 -25 -149 -6 -24 -35 -32 -35 -10 0 16 19 125 26
150 5 17 34 25 34 9z m170 0 c0 -10 -18 -116 -25 -149 -6 -24 -35 -32 -35 -10
0 16 19 125 26 150 5 17 34 25 34 9z"/>
<path d="M1630 435 c-14 -17 -40 -100 -40 -130 0 -33 31 -68 53 -59 40 15 72
133 51 188 -8 20 -48 21 -64 1z"/>
<path d="M2406 358 c-34 -53 -28 -126 9 -112 32 13 47 122 18 131 -6 2 -19 -6
-27 -19z"/>
<path d="M3268 299 c-19 -10 -25 -59 -9 -59 12 0 41 40 41 57 0 15 -9 16 -32
2z"/>
</g>
</svg>
