<svg viewBox="0 0 614 72" xmlns="http://www.w3.org/2000/svg" fill-rule="evenodd" clip-rule="evenodd" stroke-linejoin="round" stroke-miterlimit="1.414"><path d="M0 0h614v72H0z"/><g fill-rule="nonzero"><path d="M31.392 37.531c3.287.854 4.657 2.191 4.657 4.511 0 2.498-1.853 4.27-4.657 4.593v-9.104zm-1.837-2.578c-3.094-.887-4.302-2.095-4.302-4.303 0-2.4 1.627-3.98 4.302-4.27v8.573zm1.837.483v-9.04c2.417.307 4.012 1.837 4.302 4.174h2.127c-.209-3.465-2.707-5.801-6.429-6.139V22.61h-1.837v1.821c-3.948.322-6.477 2.691-6.477 6.219 0 3.287 1.965 5.253 6.38 6.381l.097.032v9.572c-2.755-.306-4.657-2.031-4.93-4.544h-2.127c.257 3.738 2.948 6.171 7.057 6.493v1.821h1.837v-1.821c4.157-.322 6.832-2.852 6.832-6.542 0-3.416-1.869-5.301-6.494-6.509l-.338-.097z" fill="#d0011b"/><path d="M67.175 39.11l3.609-11.344h.033l3.609 11.344h-7.251zm10.119 9.023h2.256l-7.67-23.251h-2.159l-7.67 23.251h2.256l2.272-7.122h8.443l2.272 7.122zm23.088-17.354h-2.095l-2.755 14.728h-.193l-3.158-14.728h-2.16l-3.158 14.728h-.193l-2.756-14.728H81.82l3.835 17.354h2.175l3.174-14.405h.21l3.158 14.405h2.175l3.835-17.354zm11.197 1.579c3.061 0 4.898 2.224 4.898 5.914h-9.926c0-3.706 1.886-5.914 5.028-5.914zm4.866 11.489c-.532 1.692-2.256 2.691-4.625 2.691-3.222 0-5.269-2.304-5.269-5.93v-.596h12.069v-1.369c0-5.189-2.562-8.154-7.041-8.154-4.303 0-7.139 2.997-7.139 7.573v2.53c0 4.947 2.707 7.831 7.38 7.831 3.497 0 6.139-1.804 6.72-4.576h-2.095zm8.198-8.556c0 2.369 1.515 3.883 4.609 4.608l2.562.613c2.368.564 3.287 1.402 3.287 2.981 0 1.901-1.66 3.126-4.254 3.126-2.417 0-4.093-1.048-4.544-2.836h-2.192c.323 2.852 2.885 4.64 6.639 4.64 3.948 0 6.542-1.998 6.542-5.059 0-2.449-1.515-3.916-4.85-4.705l-2.353-.548c-2.368-.548-3.319-1.386-3.319-2.901 0-1.804 1.547-2.964 3.964-2.964 2.208 0 3.787 1.047 4.157 2.739h2.079c-.371-2.739-2.772-4.496-6.172-4.496-3.657 0-6.155 1.95-6.155 4.802zm25.359 13.132c4.48 0 7.348-2.997 7.348-7.67v-2.578c0-4.673-2.868-7.67-7.348-7.67-4.479 0-7.347 2.997-7.347 7.67v2.578c0 4.673 2.868 7.67 7.347 7.67zm0-16.032c3.223 0 5.237 2.304 5.237 6.058v2.03c0 3.755-2.014 6.059-5.237 6.059-3.222 0-5.237-2.304-5.237-6.059v-2.03c0-3.754 2.015-6.058 5.237-6.058zm28.518 3.287c0-3.432-1.289-5.189-3.818-5.189-1.789 0-3.255 1.032-3.723 2.611h-.225c-.371-1.644-1.547-2.611-3.207-2.611-1.595 0-2.868.999-3.319 2.611h-.226v-2.321h-1.917v17.354h1.982V36.516c0-2.562 1.063-4.125 2.803-4.125 1.644 0 2.482 1.273 2.482 3.754v11.988h1.982V36.516c0-2.578 1.031-4.125 2.739-4.125 1.628 0 2.465 1.273 2.465 3.77v11.972h1.982V35.678zm12.26-3.32c3.062 0 4.899 2.224 4.899 5.914h-9.926c0-3.706 1.885-5.914 5.027-5.914zm4.866 11.489c-.531 1.692-2.255 2.691-4.624 2.691-3.223 0-5.269-2.304-5.269-5.93v-.596h12.069v-1.369c0-5.189-2.562-8.154-7.042-8.154-4.302 0-7.138 2.997-7.138 7.573v2.53c0 4.947 2.707 7.831 7.38 7.831 3.497 0 6.139-1.804 6.719-4.576h-2.095zm45.776-8.169c0-3.432-1.289-5.189-3.819-5.189-1.789 0-3.255 1.032-3.722 2.611h-.226c-.371-1.644-1.547-2.611-3.207-2.611-1.595 0-2.868.999-3.319 2.611h-.225v-2.321h-1.918v17.354h1.982V36.516c0-2.562 1.063-4.125 2.804-4.125 1.643 0 2.481 1.273 2.481 3.754v11.988h1.982V36.516c0-2.578 1.031-4.125 2.739-4.125 1.628 0 2.466 1.273 2.466 3.77v11.972h1.982V35.678zm10.552 12.761c2.626 0 4.543-1.079 5.365-3.029h.226v2.739h2.03V36.226c0-3.529-2.288-5.592-6.22-5.592-3.351 0-5.962 1.853-6.284 4.448h2.095c.483-1.676 1.998-2.611 4.189-2.611 2.659 0 4.093 1.354 4.093 3.851v1.644l-5.027.225c-3.835.178-6.01 1.998-6.01 5.044 0 3.142 2.207 5.204 5.543 5.204zm.515-1.869c-2.401 0-3.883-1.273-3.883-3.335 0-2.03 1.386-3.191 3.98-3.303l4.882-.21v2.417c0 2.498-2.175 4.431-4.979 4.431zm26.309-10.683c-.451-3.255-3.094-5.398-6.687-5.398-4.56 0-7.299 2.901-7.299 7.735v2.465c0 4.834 2.739 7.734 7.299 7.734 3.593 0 6.236-2.143 6.687-5.398h-2.095c-.354 2.063-2.272 3.497-4.641 3.497-3.303 0-5.14-2.208-5.14-6.188v-1.756c0-3.98 1.837-6.187 5.14-6.187 2.369 0 4.287 1.434 4.641 3.496h2.095zm21.67 2.546v-3.851c0-6.413-3.191-10.184-8.363-10.184s-8.363 3.771-8.363 10.184v3.851c0 6.413 3.191 10.184 8.363 10.184s8.363-3.771 8.363-10.184zm-8.363 8.137c-3.803 0-6.155-2.981-6.155-8.137v-3.851c0-5.156 2.352-8.137 6.155-8.137 3.803 0 6.155 2.981 6.155 8.137v3.851c0 5.156-2.352 8.137-6.155 8.137zm12.598-4.479c.274 4.012 3.352 6.526 7.976 6.526 4.673 0 7.751-2.611 7.751-6.575 0-3.48-1.869-5.414-6.397-6.59l-1.885-.499c-3.223-.838-4.609-2.127-4.609-4.303 0-2.658 1.918-4.237 5.14-4.237 2.917 0 4.818 1.53 5.141 4.157h2.207c-.226-3.738-3.126-6.172-7.348-6.172-4.479 0-7.396 2.466-7.396 6.252 0 3.336 1.918 5.318 6.285 6.462l1.82.467c3.32.854 4.786 2.24 4.786 4.463 0 2.756-2.175 4.561-5.495 4.561-3.254 0-5.462-1.725-5.768-4.512h-2.208zm50.835 4.479c-4.093 0-6.236-2.803-6.236-8.137v-3.851c0-5.333 2.143-8.137 6.236-8.137 3.207 0 5.479 2.24 5.607 5.543h2.208c-.113-4.705-3.094-7.59-7.815-7.59-5.35 0-8.443 3.723-8.443 10.184v3.851c0 6.462 3.093 10.184 8.443 10.184 4.544 0 7.799-2.965 7.799-7.106h-2.208c-.096 3.142-2.223 5.059-5.591 5.059zm19.769 1.853c4.479 0 7.347-2.997 7.347-7.67v-2.578c0-4.673-2.868-7.67-7.347-7.67-4.48 0-7.348 2.997-7.348 7.67v2.578c0 4.673 2.868 7.67 7.348 7.67zm0-16.032c3.222 0 5.237 2.304 5.237 6.058v2.03c0 3.755-2.015 6.059-5.237 6.059-3.223 0-5.237-2.304-5.237-6.059v-2.03c0-3.754 2.014-6.058 5.237-6.058zm28.518 3.287c0-3.432-1.289-5.189-3.819-5.189-1.788 0-3.255 1.032-3.722 2.611h-.226c-.37-1.644-1.547-2.611-3.206-2.611-1.595 0-2.868.999-3.32 2.611h-.225v-2.321h-1.918v17.354h1.982V36.516c0-2.562 1.064-4.125 2.804-4.125 1.644 0 2.481 1.273 2.481 3.754v11.988h1.982V36.516c0-2.578 1.032-4.125 2.74-4.125 1.627 0 2.465 1.273 2.465 3.77v11.972h1.982V35.678zm20.3 0c0-3.432-1.289-5.189-3.818-5.189-1.789 0-3.255 1.032-3.723 2.611h-.225c-.371-1.644-1.547-2.611-3.207-2.611-1.595 0-2.868.999-3.319 2.611h-.226v-2.321h-1.917v17.354h1.982V36.516c0-2.562 1.063-4.125 2.803-4.125 1.644 0 2.482 1.273 2.482 3.754v11.988h1.982V36.516c0-2.578 1.031-4.125 2.739-4.125 1.628 0 2.465 1.273 2.465 3.77v11.972h1.982V35.678zm10.552 12.761c2.627 0 4.544-1.079 5.366-3.029h.226v2.739h2.03V36.226c0-3.529-2.288-5.592-6.22-5.592-3.351 0-5.962 1.853-6.284 4.448h2.095c.483-1.676 1.998-2.611 4.189-2.611 2.659 0 4.093 1.354 4.093 3.851v1.644l-5.027.225c-3.835.178-6.011 1.998-6.011 5.044 0 3.142 2.208 5.204 5.543 5.204zm.516-1.869c-2.401 0-3.883-1.273-3.883-3.335 0-2.03 1.385-3.191 3.98-3.303l4.882-.21v2.417c0 2.498-2.175 4.431-4.979 4.431zm13.451 1.563h2.111V37.821c0-3.223 2.111-5.43 5.221-5.43 2.916 0 4.286 1.595 4.286 4.995v10.747h2.111V36.854c0-4.125-2.047-6.365-5.833-6.365-2.691 0-4.722 1.225-5.672 3.416h-.21v-3.126h-2.014v17.354zm20.735-9.829c0-3.577 2.014-5.913 5.124-5.913 3.093 0 5.108 2.32 5.108 5.913v2.321c0 3.593-2.015 5.913-5.108 5.913-3.11 0-5.124-2.336-5.124-5.913v-2.321zm10.28 7.332v2.497h2.014V23.867h-2.111v9.474h-.29c-.822-1.82-2.723-2.852-5.237-2.852-4.028 0-6.767 2.965-6.767 7.3v3.335c0 4.334 2.739 7.299 6.767 7.299 2.466 0 4.319-.966 5.334-2.787h.29zm45.501.499h-11.328V24.882h-2.191v23.251h13.519v-1.998zm11.872-19.948a2.008 2.008 0 0 0 1.998-1.998 2.008 2.008 0 0 0-1.998-1.998 2.008 2.008 0 0 0-1.998 1.998c0 1.096.903 1.998 1.998 1.998zm7.235 21.946v-1.708h-5.946V30.779h-8.25v1.708h6.14v13.938h-6.107v1.708h14.163zm4.879 0h2.111V37.821c0-3.223 2.111-5.43 5.221-5.43 2.916 0 4.286 1.595 4.286 4.995v10.747h2.111V36.854c0-4.125-2.047-6.365-5.833-6.365-2.691 0-4.721 1.225-5.672 3.416h-.21v-3.126h-2.014v17.354zm26.342-15.775c3.062 0 4.899 2.224 4.899 5.914h-9.926c0-3.706 1.885-5.914 5.027-5.914zm4.866 11.489c-.531 1.692-2.256 2.691-4.624 2.691-3.223 0-5.269-2.304-5.269-5.93v-.596h12.069v-1.369c0-5.189-2.562-8.154-7.042-8.154-4.302 0-7.138 2.997-7.138 7.573v2.53c0 4.947 2.707 7.831 7.38 7.831 3.496 0 6.139-1.804 6.719-4.576h-2.095z" fill="#fff"/></g></svg>